<?xml version="1.0" standalone="no"?>
<!DOCTYPE svg PUBLIC "-//W3C//DTD SVG 20010904//EN"
 "http://www.w3.org/TR/2001/REC-SVG-20010904/DTD/svg10.dtd">
<svg version="1.0" xmlns="http://www.w3.org/2000/svg"
 width="38.000000pt" height="38.000000pt" viewBox="0 0 38.000000 38.000000"
 preserveAspectRatio="xMidYMid meet">
<metadata>
Created by potrace 1.10, written by Peter Selinger 2001-2011
</metadata>
<g transform="translate(0.000000,38.000000) scale(0.050000,-0.050000)"
fill="#6d9ac7" stroke="none">
<path d="M242 689 c-70 -38 -141 -69 -157 -69 -37 0 -22 -152 28 -308 39 -119
197 -292 267 -292 123 0 283 253 310 490 l12 100 -154 70 c-84 39 -159 72
-166 74 -6 2 -70 -27 -140 -65z m298 -199 c13 -16 19 -43 13 -61 -7 -17 -1
-49 12 -71 32 -52 -45 -123 -123 -114 -49 6 -52 13 -58 141 l-6 135 69 0 c37
0 79 -13 93 -30z m-200 -50 c0 -11 -18 -20 -40 -20 -52 0 -52 -34 1 -50 69
-22 45 -120 -29 -120 -32 0 -63 12 -67 26 -7 19 5 22 43 13 66 -17 66 3 0 64
-42 39 -47 54 -27 78 27 33 119 40 119 9z"/>
<path d="M440 438 c0 -48 47 -42 56 9 4 19 -6 33 -25 33 -18 0 -31 -17 -31
-42z"/>
<path d="M440 319 c0 -29 11 -40 35 -35 52 10 58 76 6 76 -28 0 -41 -13 -41
-41z"/>
</g>
</svg>
