<?xml version="1.0" standalone="no"?>
<!DOCTYPE svg PUBLIC "-//W3C//DTD SVG 20010904//EN"
 "http://www.w3.org/TR/2001/REC-SVG-20010904/DTD/svg10.dtd">
<svg version="1.0" xmlns="http://www.w3.org/2000/svg"
 width="57.000000pt" height="57.000000pt" viewBox="0 0 57.000000 57.000000"
 preserveAspectRatio="xMidYMid meet">
<metadata>
Created by potrace 1.10, written by Peter Selinger 2001-2011
</metadata>
<g transform="translate(0.000000,57.000000) scale(0.100000,-0.100000)"
fill="#073461" stroke="none">
<path d="M238 553 c-3 -10 -26 -29 -52 -43 -26 -14 -57 -31 -69 -37 -12 -7
-30 -13 -39 -13 -26 0 -33 -20 -29 -90 6 -145 88 -293 197 -355 30 -17 31 -17
71 8 104 66 178 205 184 347 3 68 -3 90 -26 90 -18 0 -53 15 -90 40 -16 11
-40 24 -52 30 -13 5 -23 16 -23 25 0 23 -66 21 -72 -2z m154 -190 c9 -10 18
-46 21 -82 5 -59 3 -65 -20 -87 -26 -24 -86 -33 -97 -15 -5 7 -10 147 -7 189
2 20 85 15 103 -5z m-177 -33 c3 -5 0 -18 -7 -29 -10 -17 -8 -23 15 -45 15
-14 27 -30 27 -36 0 -21 -38 -52 -61 -48 -28 4 -38 28 -12 28 34 0 33 12 -4
53 l-36 40 29 24 c32 25 40 28 49 13z"/>
<path d="M327 343 c-13 -12 -7 -53 7 -53 20 0 39 27 32 45 -6 15 -28 20 -39 8z"/>
<path d="M324 245 c-9 -23 3 -45 25 -45 20 0 37 32 26 50 -9 15 -45 12 -51 -5z"/>
</g>
</svg>
