<?xml version="1.0" standalone="no"?>
<!DOCTYPE svg PUBLIC "-//W3C//DTD SVG 20010904//EN"
 "http://www.w3.org/TR/2001/REC-SVG-20010904/DTD/svg10.dtd">
<svg version="1.0" xmlns="http://www.w3.org/2000/svg"
 width="72.000000pt" height="72.000000pt" viewBox="0 0 72.000000 72.000000"
 preserveAspectRatio="xMidYMid meet">
<metadata>
Created by potrace 1.10, written by Peter Selinger 2001-2011
</metadata>
<g transform="translate(0.000000,72.000000) scale(0.100000,-0.100000)"
fill="#073461" stroke="none">
<path d="M300 706 c0 -12 -76 -69 -120 -90 -8 -4 -26 -13 -40 -21 -14 -8 -35
-15 -47 -15 -35 0 -44 -30 -33 -107 18 -127 23 -148 35 -173 7 -14 22 -47 34
-73 12 -27 27 -55 34 -64 32 -43 128 -133 156 -147 28 -15 34 -15 60 -1 16 8
57 40 91 72 49 45 70 75 104 147 24 50 46 109 50 131 30 190 28 215 -17 215
-12 0 -33 7 -47 15 -14 8 -34 18 -45 24 -11 5 -36 20 -55 33 -19 13 -43 27
-52 31 -10 3 -18 13 -18 22 0 11 -11 15 -45 15 -32 0 -45 -4 -45 -14z m195
-243 c13 -12 16 -28 12 -60 -3 -29 0 -46 9 -54 21 -17 17 -76 -6 -99 -25 -25
-99 -37 -129 -21 -20 11 -21 19 -21 126 0 81 4 115 13 118 30 13 106 6 122
-10z m-202 -47 c28 -21 21 -39 -13 -34 -37 5 -63 -18 -34 -29 38 -14 74 -47
74 -68 0 -51 -88 -89 -119 -51 -15 18 8 37 36 30 46 -12 38 39 -8 55 -25 9
-29 15 -29 49 0 31 5 41 23 50 30 14 49 14 70 -2z"/>
<path d="M404 426 c-11 -28 4 -48 33 -44 22 2 28 8 28 28 0 20 -6 26 -28 28
-18 2 -29 -2 -33 -12z"/>
<path d="M406 314 c-13 -50 39 -74 68 -32 14 20 14 24 -1 40 -25 27 -60 23
-67 -8z"/>
</g>
</svg>
